<svg width="227.9129516601562" height="124.924102010943" viewBox="0 0 350 191.8426986502575" class="css-1j8o68f"><defs id="SvgjsDefs2017"></defs><g id="SvgjsG2018" featurekey="e7LhAk-0" transform="matrix(2.4860965622032682,0,0,2.4860965622032682,96.13241475134829,-9.8753063433408)" fill="#000000"><g xmlns="http://www.w3.org/2000/svg"><path d="M26,5.829a1.829,1.829,0,0,1,3.122-1.293l2.171,2.171a1,1,0,0,0,1.414,0l2.171-2.171a1.829,1.829,0,1,1,2.586,2.586L32,12.586,26.536,7.122A1.816,1.816,0,0,1,26,5.829ZM16,18a3,3,0,0,1,3-3H39a5.008,5.008,0,0,0,4.883-3.922A5,5,0,0,1,43,21H19A3,3,0,0,1,16,18Zm-1,5H49a3,3,0,0,1,0,6H15a3,3,0,0,1,0-6ZM12.074,38.34,14,36.414l2.035,2.036L17.909,60H15.841ZM19.917,60,18.036,38.378,20,36.414l2.018,2.018L22.956,60ZM28,60H24.957l-.939-21.6L26,36.414l2,2Zm2,0V38.414l2-2,2,2V60Zm9.043,0H36V38.414l2-2L39.982,38.4Zm2,0,.938-21.568L44,36.414l1.964,1.964L44.083,60Zm7.115,0H46.091l1.874-21.55L50,36.414l1.926,1.926ZM52.8,36.389l-2.8-2.8-3,3-3-3-3,3-3-3-3,3-3-3-3,3-3-3-3,3-3-3-3,3-3-3-2.8,2.8A2.994,2.994,0,0,1,13,31H51a2.994,2.994,0,0,1,1.8,5.389Z"></path></g></g><g id="SvgjsG2019" featurekey="Qg0WB5-0" transform="matrix(1.823581438705074,0,0,1.823581438705074,-1.3676943397670198,154.89694176291357)" fill="#000000"><path d="M3.48 15.21 q0.17 0.14 0.435 0.375 t0.605 0.465 q0.51 0.34 1.01 0.53 t1.05 0.19 q0.51 0 0.855 -0.115 t0.545 -0.305 t0.285 -0.44 t0.085 -0.53 q0 -0.31 -0.235 -0.555 t-0.575 -0.435 t-0.71 -0.325 t-0.64 -0.225 q-1.2 -0.42 -2.1 -0.905 t-1.5 -1.08 t-0.9 -1.31 t-0.3 -1.595 q0 -0.93 0.375 -1.69 t1.07 -1.3 t1.675 -0.835 t2.19 -0.295 q0.91 0 1.745 0.205 t1.645 0.655 q0.34 0.2 0.645 0.415 t0.535 0.415 t0.365 0.38 t0.135 0.31 t-0.065 0.24 t-0.195 0.25 l-1.53 1.63 q-0.17 0.17 -0.34 0.17 q-0.14 0 -0.255 -0.08 t-0.255 -0.2 l-0.09 -0.08 q-0.2 -0.17 -0.445 -0.35 t-0.525 -0.325 t-0.59 -0.24 t-0.63 -0.095 q-0.33 0 -0.62 0.055 t-0.51 0.175 t-0.35 0.315 t-0.13 0.475 t0.14 0.485 t0.42 0.38 t0.695 0.33 t0.965 0.335 q1.06 0.35 1.955 0.735 t1.545 0.91 t1.015 1.255 t0.365 1.77 q0 1.1 -0.45 1.995 t-1.235 1.525 t-1.845 0.975 t-2.28 0.345 q-1.15 0 -2.26 -0.41 t-2.07 -1.1 q-0.4 -0.29 -0.675 -0.57 t-0.435 -0.45 l-0.03 -0.03 q-0.01 -0.02 -0.02 -0.025 t-0.02 -0.015 q-0.01 -0.02 -0.02 -0.025 t-0.02 -0.015 q-0.23 -0.25 -0.23 -0.4 q0 -0.17 0.23 -0.38 l1.73 -1.65 q0.21 -0.15 0.34 -0.15 q0.09 0 0.19 0.06 t0.24 0.18 z M27.39 19.26 q0 0.17 -0.06 0.325 t-0.2 0.245 q-0.11 0.11 -0.26 0.14 t-0.26 0.03 l-1.97 0 q-0.21 0 -0.34 -0.055 t-0.21 -0.155 t-0.135 -0.245 t-0.115 -0.315 l-0.29 -0.75 q-0.27 0.27 -0.59 0.575 t-0.705 0.565 t-0.835 0.435 t-0.96 0.175 q-0.91 0 -1.745 -0.23 t-1.56 -0.655 t-1.315 -1.02 t-1.015 -1.325 t-0.655 -1.575 t-0.23 -1.765 q0 -1.39 0.51 -2.585 t1.39 -2.08 t2.07 -1.39 t2.55 -0.505 q0.62 0 1.14 0.185 t0.945 0.485 t0.77 0.68 t0.615 0.77 l0.39 -1.21 q0.1 -0.25 0.165 -0.405 t0.14 -0.23 t0.185 -0.1 t0.31 -0.025 l1.49 0 q0.11 0 0.26 0.03 t0.26 0.14 q0.14 0.11 0.2 0.25 t0.06 0.32 l0 11.27 z M17.54 13.66 q0 0.66 0.205 1.235 t0.585 0.995 t0.915 0.665 t1.185 0.245 q0.67 0 1.245 -0.245 t1 -0.665 t0.665 -0.995 t0.24 -1.235 q0 -0.64 -0.24 -1.22 t-0.665 -1.02 t-1 -0.695 t-1.245 -0.255 q-0.65 0 -1.185 0.255 t-0.915 0.695 t-0.585 1.02 t-0.205 1.22 z M33.34 19.23 q-0.09 0.19 -0.15 0.335 t-0.135 0.24 t-0.185 0.145 t-0.3 0.05 l-1.98 0 q-0.8 0 -0.8 -0.77 l0 -14.94 q0 -0.17 0.065 -0.31 t0.17 -0.24 t0.24 -0.155 t0.265 -0.055 l2.27 0 q0.38 0 0.6 0.22 t0.22 0.54 l0 4.56 q0.28 -0.3 0.6 -0.61 t0.695 -0.565 t0.825 -0.415 t1 -0.16 q1.36 0 2.505 0.505 t1.97 1.39 t1.29 2.08 t0.465 2.585 q0 1.38 -0.465 2.58 t-1.29 2.085 t-1.97 1.395 t-2.505 0.51 q-0.51 0 -0.96 -0.175 t-0.84 -0.445 t-0.72 -0.58 t-0.6 -0.58 z M39.370000000000005 13.66 q0 -0.64 -0.205 -1.22 t-0.585 -1.02 t-0.91 -0.695 t-1.19 -0.255 t-1.235 0.255 t-0.995 0.695 t-0.665 1.02 t-0.245 1.22 l0 0.14 q0.03 0.63 0.285 1.18 t0.675 0.955 t0.98 0.635 t1.2 0.23 q0.66 0 1.19 -0.245 t0.91 -0.665 t0.585 -0.995 t0.205 -1.235 z M44.99000000000001 8.04 q0 -0.17 0.075 -0.325 t0.185 -0.245 q0.26 -0.17 0.54 -0.17 l1.51 0 q0.19 0 0.3 0.07 t0.185 0.18 t0.13 0.25 t0.135 0.28 q0.02 0.04 0.08 0.195 t0.13 0.34 t0.135 0.35 t0.085 0.215 q0.3 -0.33 0.575 -0.695 t0.585 -0.675 t0.69 -0.51 t0.9 -0.2 q0.54 0 0.965 0.08 t0.805 0.235 t0.755 0.395 t0.815 0.56 q0.69 0.37 0.26 1.1 l-0.91 1.55 q-0.2 0.3 -0.49 0.37 t-0.63 -0.09 q-0.43 -0.42 -0.875 -0.625 t-1.015 -0.205 q-0.39 0 -0.685 0.11 t-0.535 0.31 t-0.45 0.48 t-0.42 0.62 l0 7.24 q0 0.38 -0.185 0.575 t-0.615 0.195 l-2.25 0 q-0.78 0 -0.78 -0.77 l0 -11.19 z M56.49 8.08 q0 -0.32 0.18 -0.55 t0.56 -0.23 l2.29 0 q0.12 0 0.26 0.055 t0.26 0.16 t0.205 0.245 t0.085 0.32 l0 11.15 q0 0.38 -0.21 0.575 t-0.6 0.195 l-2.29 0 q-0.74 0 -0.74 -0.77 l0 -11.15 z M56.49 3.0199999999999996 q0 -0.42 0.18 -0.595 t0.56 -0.175 l2.32 0 q0.35 0 0.565 0.175 t0.215 0.595 l0 1.95 q0 0.12 -0.055 0.26 t-0.155 0.27 t-0.245 0.215 t-0.325 0.085 l-2.32 0 q-0.74 0 -0.74 -0.83 l0 -1.95 z M62.99 7.470000000000001 q0.13 -0.11 0.275 -0.14 t0.275 -0.03 l1.51 0 q0.18 0 0.31 0.065 t0.22 0.175 t0.145 0.25 t0.105 0.29 l0.31 1.28 q0.15 -0.31 0.435 -0.705 t0.725 -0.74 t1.045 -0.58 t1.405 -0.235 q1.14 0 2.07 0.44 t1.585 1.2 t1.015 1.775 t0.36 2.165 l0 6.55 q0 0.38 -0.165 0.575 t-0.525 0.195 l-2.31 0 q-0.43 0 -0.59 -0.145 t-0.16 -0.565 l0 -6.51 q0 -0.43 -0.195 -0.815 t-0.515 -0.68 t-0.725 -0.465 t-0.825 -0.17 q-0.36 0 -0.735 0.16 t-0.69 0.445 t-0.53 0.67 t-0.245 0.835 l0 6.5 q0 0.17 -0.065 0.34 t-0.195 0.26 q-0.13 0.08 -0.245 0.11 t-0.265 0.03 l-2.26 0 q-0.43 0 -0.62 -0.21 t-0.19 -0.56 l0 -11.19 q0 -0.19 0.085 -0.35 t0.235 -0.25 z M90.05 19.26 q0 0.17 -0.06 0.325 t-0.2 0.245 q-0.11 0.11 -0.26 0.14 t-0.26 0.03 l-1.97 0 q-0.21 0 -0.34 -0.055 t-0.21 -0.155 t-0.135 -0.245 t-0.115 -0.315 l-0.29 -0.75 q-0.27 0.27 -0.59 0.575 t-0.705 0.565 t-0.835 0.435 t-0.96 0.175 q-0.91 0 -1.745 -0.23 t-1.56 -0.655 t-1.315 -1.02 t-1.015 -1.325 t-0.655 -1.575 t-0.23 -1.765 q0 -1.39 0.51 -2.585 t1.39 -2.08 t2.07 -1.39 t2.55 -0.505 q0.62 0 1.14 0.185 t0.945 0.485 t0.77 0.68 t0.615 0.77 l0.39 -1.21 q0.1 -0.25 0.165 -0.405 t0.14 -0.23 t0.185 -0.1 t0.31 -0.025 l1.49 0 q0.11 0 0.26 0.03 t0.26 0.14 q0.14 0.11 0.2 0.25 t0.06 0.32 l0 11.27 z M80.2 13.66 q0 0.66 0.205 1.235 t0.585 0.995 t0.915 0.665 t1.185 0.245 q0.67 0 1.245 -0.245 t1 -0.665 t0.665 -0.995 t0.24 -1.235 q0 -0.64 -0.24 -1.22 t-0.665 -1.02 t-1 -0.695 t-1.245 -0.255 q-0.65 0 -1.185 0.255 t-0.915 0.695 t-0.585 1.02 t-0.205 1.22 z M92.72 5.59 q0 -0.44 0.44 -0.44 l1.96 0 q0.44 0 0.44 0.44 l0 3.87 q0 0.44 -0.44 0.44 l-1.96 0 q-0.44 0 -0.44 -0.44 l0 -3.87 z M100.46 16.05 q0.27 0.27 0.585 0.455 t0.605 0.3 t0.51 0.165 t0.3 0.05 q0.19 0 0.485 -0.015 t0.565 -0.09 t0.465 -0.245 t0.195 -0.48 q0 -0.28 -0.11 -0.445 t-0.32 -0.28 t-0.515 -0.205 t-0.685 -0.21 q-1.2 -0.32 -1.98 -0.77 t-1.235 -1.005 t-0.635 -1.195 t-0.18 -1.35 q0 -0.83 0.33 -1.51 t0.94 -1.165 t1.46 -0.75 t1.89 -0.265 q0.63 0 1.18 0.105 t1.05 0.33 t0.975 0.58 t0.945 0.845 q0.17 0.2 0.175 0.375 t-0.225 0.375 q-0.39 0.32 -0.745 0.63 t-0.735 0.69 q-0.12 0.1 -0.24 0.125 t-0.23 -0.005 t-0.21 -0.1 t-0.18 -0.17 q-0.35 -0.39 -0.8 -0.525 t-0.84 -0.135 q-0.49 0 -0.78 0.17 t-0.27 0.52 q0.02 0.26 0.195 0.405 t0.43 0.235 t0.54 0.145 t0.525 0.125 q0.9 0.29 1.65 0.63 t1.3 0.835 t0.855 1.185 t0.305 1.68 t-0.395 1.77 t-1.085 1.31 t-1.635 0.81 t-2.035 0.28 q-0.62 0 -1.26 -0.11 t-1.24 -0.355 t-1.14 -0.63 t-0.96 -0.935 q-0.11 -0.14 -0.165 -0.295 t-0.05 -0.305 t0.06 -0.275 t0.175 -0.215 l1.29 -1.29 q0.24 -0.2 0.425 -0.14 t0.475 0.34 z M118.30999999999999 16.05 q0.27 0.27 0.585 0.455 t0.605 0.3 t0.51 0.165 t0.3 0.05 q0.19 0 0.485 -0.015 t0.565 -0.09 t0.465 -0.245 t0.195 -0.48 q0 -0.28 -0.11 -0.445 t-0.32 -0.28 t-0.515 -0.205 t-0.685 -0.21 q-1.2 -0.32 -1.98 -0.77 t-1.235 -1.005 t-0.635 -1.195 t-0.18 -1.35 q0 -0.83 0.33 -1.51 t0.94 -1.165 t1.46 -0.75 t1.89 -0.265 q0.63 0 1.18 0.105 t1.05 0.33 t0.975 0.58 t0.945 0.845 q0.17 0.2 0.175 0.375 t-0.225 0.375 q-0.39 0.32 -0.745 0.63 t-0.735 0.69 q-0.12 0.1 -0.24 0.125 t-0.23 -0.005 t-0.21 -0.1 t-0.18 -0.17 q-0.35 -0.39 -0.8 -0.525 t-0.84 -0.135 q-0.49 0 -0.78 0.17 t-0.27 0.52 q0.02 0.26 0.195 0.405 t0.43 0.235 t0.54 0.145 t0.525 0.125 q0.9 0.29 1.65 0.63 t1.3 0.835 t0.855 1.185 t0.305 1.68 t-0.395 1.77 t-1.085 1.31 t-1.635 0.81 t-2.035 0.28 q-0.62 0 -1.26 -0.11 t-1.24 -0.355 t-1.14 -0.63 t-0.96 -0.935 q-0.11 -0.14 -0.165 -0.295 t-0.05 -0.305 t0.06 -0.275 t0.175 -0.215 l1.29 -1.29 q0.24 -0.2 0.425 -0.14 t0.475 0.34 z M126.98 8.29 q-0.2 -0.41 -0.075 -0.7 t0.595 -0.29 l2.56 0 q0.26 0 0.455 0.14 t0.275 0.4 q0.17 0.53 0.375 1.185 t0.43 1.335 t0.445 1.35 t0.405 1.235 t0.33 0.985 t0.215 0.6 l2.12 -6.69 q0.13 -0.32 0.295 -0.43 t0.465 -0.11 l2.37 0 q0.29 0 0.44 0.07 t0.2 0.19 t0.02 0.275 t-0.1 0.325 l-1.1 2.69 q0.07 0.17 0.27 0.575 t0.455 0.92 t0.52 1.08 t0.445 1.055 l2.45 -6.64 q0.13 -0.32 0.265 -0.43 t0.405 -0.11 l2.21 0 q0.48 0 0.66 0.18 t0.02 0.68 l-4.69 11.41 q-0.09 0.18 -0.275 0.305 t-0.535 0.125 l-1.05 0 q-0.39 0 -0.57 -0.125 t-0.29 -0.325 l-1.86 -4.54 l-1.83 4.56 q-0.11 0.18 -0.26 0.305 t-0.45 0.125 l-1.19 0 q-0.4 0 -0.565 -0.115 t-0.245 -0.315 z M156.97 18.48 q-0.88 0.81 -1.98 1.265 t-2.33 0.455 q-1.37 0 -2.59 -0.5 t-2.14 -1.385 t-1.46 -2.085 t-0.54 -2.61 q0 -0.88 0.215 -1.705 t0.61 -1.545 t0.96 -1.325 t1.265 -1.035 t1.52 -0.67 t1.73 -0.24 q0.83 0 1.61 0.22 t1.465 0.62 t1.255 0.96 t0.98 1.225 t0.635 1.42 t0.225 1.555 q0 0.52 -0.015 0.85 t-0.155 0.525 t-0.465 0.27 t-0.955 0.075 l-7.2 0 q0.1 0.64 0.405 1.07 t0.705 0.685 t0.85 0.365 t0.85 0.11 q0.36 0 0.74 -0.075 t0.735 -0.2 t0.65 -0.29 t0.475 -0.345 q0.16 -0.13 0.275 -0.195 t0.245 -0.065 t0.265 0.09 t0.305 0.26 l1.06 1.2 q0.11 0.13 0.14 0.235 t0.03 0.215 q0 0.2 -0.11 0.345 t-0.26 0.255 z M152.16 10.15 q-0.39 0 -0.755 0.155 t-0.685 0.415 t-0.575 0.59 t-0.415 0.67 l5.11 0 q-0.21 -0.39 -0.455 -0.72 t-0.56 -0.58 t-0.72 -0.39 t-0.945 -0.14 z M171.13 18.48 q-0.88 0.81 -1.98 1.265 t-2.33 0.455 q-1.37 0 -2.59 -0.5 t-2.14 -1.385 t-1.46 -2.085 t-0.54 -2.61 q0 -0.88 0.215 -1.705 t0.61 -1.545 t0.96 -1.325 t1.265 -1.035 t1.52 -0.67 t1.73 -0.24 q0.83 0 1.61 0.22 t1.465 0.62 t1.255 0.96 t0.98 1.225 t0.635 1.42 t0.225 1.555 q0 0.52 -0.015 0.85 t-0.155 0.525 t-0.465 0.27 t-0.955 0.075 l-7.2 0 q0.1 0.64 0.405 1.07 t0.705 0.685 t0.85 0.365 t0.85 0.11 q0.36 0 0.74 -0.075 t0.735 -0.2 t0.65 -0.29 t0.475 -0.345 q0.16 -0.13 0.275 -0.195 t0.245 -0.065 t0.265 0.09 t0.305 0.26 l1.06 1.2 q0.11 0.13 0.14 0.235 t0.03 0.215 q0 0.2 -0.11 0.345 t-0.26 0.255 z M166.32 10.15 q-0.39 0 -0.755 0.155 t-0.685 0.415 t-0.575 0.59 t-0.415 0.67 l5.11 0 q-0.21 -0.39 -0.455 -0.72 t-0.56 -0.58 t-0.72 -0.39 t-0.945 -0.14 z M175.42 5.32 q0 -0.31 0.205 -0.465 t0.585 -0.295 l2.27 -0.79 q0.05 -0.01 0.095 -0.01 l0.085 0 q0.37 0 0.495 0.215 t0.125 0.565 l-0.01 3.15 l1.67 0 q0.32 0 0.52 0.19 t0.2 0.57 l0 1.93 q0 0.42 -0.2 0.615 t-0.52 0.195 l-1.67 0 l0.01 8.04 q0 0.38 -0.22 0.575 t-0.61 0.195 l-2.26 0 q-0.77 0 -0.77 -0.77 l-0.01 -8.04 l-0.73 0 q-0.77 0 -0.77 -0.81 l0 -1.93 q0 -0.76 0.77 -0.76 l0.73 0 z M185.14 16.05 q0.27 0.27 0.585 0.455 t0.605 0.3 t0.51 0.165 t0.3 0.05 q0.19 0 0.485 -0.015 t0.565 -0.09 t0.465 -0.245 t0.195 -0.48 q0 -0.28 -0.11 -0.445 t-0.32 -0.28 t-0.515 -0.205 t-0.685 -0.21 q-1.2 -0.32 -1.98 -0.77 t-1.235 -1.005 t-0.635 -1.195 t-0.18 -1.35 q0 -0.83 0.33 -1.51 t0.94 -1.165 t1.46 -0.75 t1.89 -0.265 q0.63 0 1.18 0.105 t1.05 0.33 t0.975 0.58 t0.945 0.845 q0.17 0.2 0.175 0.375 t-0.225 0.375 q-0.39 0.32 -0.745 0.63 t-0.735 0.69 q-0.12 0.1 -0.24 0.125 t-0.23 -0.005 t-0.21 -0.1 t-0.18 -0.17 q-0.35 -0.39 -0.8 -0.525 t-0.84 -0.135 q-0.49 0 -0.78 0.17 t-0.27 0.52 q0.02 0.26 0.195 0.405 t0.43 0.235 t0.54 0.145 t0.525 0.125 q0.9 0.29 1.65 0.63 t1.3 0.835 t0.855 1.185 t0.305 1.68 t-0.395 1.77 t-1.085 1.31 t-1.635 0.81 t-2.035 0.28 q-0.62 0 -1.26 -0.11 t-1.24 -0.355 t-1.14 -0.63 t-0.96 -0.935 q-0.11 -0.14 -0.165 -0.295 t-0.05 -0.305 t0.06 -0.275 t0.175 -0.215 l1.29 -1.29 q0.24 -0.2 0.425 -0.14 t0.475 0.34 z"></path></g></svg>