<svg width="227.9129516601562" height="124.924102010943" viewBox="0 0 350 191.8426986502575" class="css-1j8o68f"><defs id="SvgjsDefs2017"></defs><g id="SvgjsG2018" featurekey="e7LhAk-0" transform="matrix(2.4860965622032682,0,0,2.4860965622032682,96.13241475134829,-9.8753063433408)" fill="#000000"><g xmlns="http://www.w3.org/2000/svg"><path d="M26,5.829a1.829,1.829,0,0,1,3.122-1.293l2.171,2.171a1,1,0,0,0,1.414,0l2.171-2.171a1.829,1.829,0,1,1,2.586,2.586L32,12.586,26.536,7.122A1.816,1.816,0,0,1,26,5.829ZM16,18a3,3,0,0,1,3-3H39a5.008,5.008,0,0,0,4.883-3.922A5,5,0,0,1,43,21H19A3,3,0,0,1,16,18Zm-1,5H49a3,3,0,0,1,0,6H15a3,3,0,0,1,0-6ZM12.074,38.34,14,36.414l2.035,2.036L17.909,60H15.841ZM19.917,60,18.036,38.378,20,36.414l2.018,2.018L22.956,60ZM28,60H24.957l-.939-21.6L26,36.414l2,2Zm2,0V38.414l2-2,2,2V60Zm9.043,0H36V38.414l2-2L39.982,38.4Zm2,0,.938-21.568L44,36.414l1.964,1.964L44.083,60Zm7.115,0H46.091l1.874-21.55L50,36.414l1.926,1.926ZM52.8,36.389l-2.8-2.8-3,3-3-3-3,3-3-3-3,3-3-3-3,3-3-3-3,3-3-3-3,3-3-3-2.8,2.8A2.994,2.994,0,0,1,13,31H51a2.994,2.994,0,0,1,1.8,5.389Z"></path></g></g></svg>